{"accessors" : [{"bufferView" : 0, "byteOffset" : 0, "componentType" : 5123, "count" : 6774, "type" : "SCALAR", "max" : [3224], "min" : [0]}, {"bufferView" : 1, "byteOffset" : 0, "componentType" : 5126, "count" : 3225, "type" : "VEC3", "max" : [55.810302734375, 13.093635559082031, 2.5], "min" : [1.583823800086975, -0.20719119906425476, 0], "name" : "POSITION"}, {"bufferView" : 1, "byteOffset" : 12, "componentType" : 5126, "count" : 3225, "type" : "VEC3", "max" : [1.0000044107437134, 1.0000044107437134, 1.0000044107437134], "min" : [-1.0000044107437134, -1.0000044107437134, -1.0000044107437134], "name" : "NORMAL"}, {"bufferView" : 1, "byteOffset" : 24, "componentType" : 5126, "count" : 3225, "type" : "VEC2", "max" : [0.9976227283477783, 1.9980080127716064], "min" : [0.0019912628922611475, 1.0019919872283936], "name" : "TEXCOORD_0"}], "asset" : {"generator" : "Aspose.3D 24.9.1", "version" : "2.0"}, "buffers" : [{"uri" : "data:application/octet-stream;base64,", "byteLength" : 116756}], "bufferViews" : [{"buffer" : 0, "byteOffset" : 0, "byteLength" : 13548, "target" : 34963}, {"buffer" : 0, "byteOffset" : 13552, "byteLength" : 103200, "byteStride" : 32, "target" : 34962}], "materials" : [{"pbrMetallicRoughness" : {"baseColorFactor" : [0.5, 0.5, 0.5, 1], "metallicFactor" : 0, "roughnessFactor" : 1}, "emissiveFactor" : [0, 0, 0], "alphaMode" : "OPAQUE", "doubleSided" : false}], "meshes" : [{"primitives" : [{"attributes" : {"POSITION" : 1, "NORMAL" : 2, "TEXCOORD_0" : 3}, "indices" : 0, "material" : 0, "mode" : 4}]}], "nodes" : [{"matrix" : [0.0839655928482197, 0, 0, 0, 0, 0.0839655928482197, 0, 0, 0, 0, 0.0839655928482197, 0, -2.387348824392136, 0, 0.18291031371711153, 1], "mesh" : 0, "name" : "Node #0"}], "scene" : 0, "scenes" : [{"nodes" : [0]}]}