{"asset":{"copyright":"","generator":"Aspose GLTF","version":"2.0"},"extensionsUsed":["KHR_materials_unlit"],"accessors":[{"name":"POSITION","bufferView":0,"componentType":5126,"count":5088,"max":[791.35302734375,-78.20780944824219,2280.08740234375],"min":[2.1384799480438232,-1044.3465576171875,966.1387329101562],"type":"VEC3"},{"bufferView":1,"componentType":5123,"count":10728,"type":"SCALAR"}],"bufferViews":[{"buffer":0,"byteLength":61056,"byteStride":12,"target":34962},{"buffer":0,"byteLength":21456,"byteOffset":61056,"target":34963}],"buffers":[{"byteLength":82512,"uri":"model.bin"}],"materials":[{"extensions":{"KHR_materials_unlit":{}},"name":"material1","pbrMetallicRoughness":{}}],"meshes":[{"name":"mesh","primitives":[{"attributes":{"POSITION":0},"indices":1,"material":0,"mode":1}]}],"nodes":[{"mesh":0}],"scenes":[{"name":"Default","nodes":[0]}]}